<?xml version="1.0" encoding="utf-8"?>
<!-- Generator: Adobe Illustrator 26.2.1, SVG Export Plug-In . SVG Version: 6.00 Build 0)  -->
<svg version="1.1" id="Layer_1" xmlns="http://www.w3.org/2000/svg" xmlns:xlink="http://www.w3.org/1999/xlink" x="0px" y="0px"
	 viewBox="0 0 1122 230" style="enable-background:new 0 0 1122 230;" xml:space="preserve">
<style type="text/css">
	.st0{fill:#FF8C1A;}
	.st1{font-family:'Broadway';}
	.st2{font-size:166.6223px;}
</style>
<rect x="118" y="135" width="4" height="8"/>
<rect x="118" y="87" width="4" height="8"/>
<rect x="92" y="113" width="8" height="4"/>
<rect x="140" y="113" width="8" height="4"/>
<rect x="135" y="128" transform="matrix(0.7071 -0.7071 0.7071 0.7071 -53.2212 135.5472)" width="4" height="8"/>
<rect x="101" y="94" transform="matrix(0.7071 -0.7071 0.7071 0.7071 -39.1176 101.527)" width="4" height="8"/>
<rect x="99" y="130" transform="matrix(0.7071 -0.7071 0.7071 0.7071 -63.1798 111.4825)" width="8" height="4"/>
<rect x="133" y="96" transform="matrix(0.7071 -0.7071 0.7071 0.7071 -29.1593 125.5868)" width="8" height="4"/>
<path d="M145.5,183c-7.2,0-15.4-2.8-24-8.2c-13.4-8.5-26.2-22.7-36.1-39.8S69.7,99.7,69,83.8C68.2,67.5,73,55.5,82.5,50
	s22.2-3.6,36,5.1c13.4,8.5,26.2,22.7,36.1,39.8s15.7,35.3,16.4,51.2c0.7,16.3-4.1,28.3-13.6,33.8C153.9,182,149.9,183,145.5,183z
	 M94.5,51c-3.7,0-7.1,0.8-10.1,2.6C76.3,58.3,72.2,69,72.8,83.7c0.7,15.2,6.3,32.7,15.9,49.4c9.6,16.6,21.9,30.3,34.8,38.5
	c12.4,7.9,23.8,9.7,31.9,5.1c8.1-4.7,12.2-15.4,11.6-30.1c-0.7-15.2-6.3-32.7-15.9-49.4c-9.6-16.6-21.9-30.3-34.8-38.5
	C108.5,53.5,101,51,94.5,51z"/>
<path d="M94.5,183c-4.4,0-8.5-1-12-3.1c-9.5-5.5-14.3-17.4-13.6-33.8c0.7-15.8,6.5-34,16.4-51.2s22.7-31.3,36.1-39.8
	c13.8-8.8,26.6-10.6,36-5.1c9.5,5.5,14.3,17.4,13.6,33.8c-0.7,15.8-6.5,34-16.4,51.2s-22.7,31.3-36.1,39.8
	C110,180.3,101.8,183,94.5,183L94.5,183z M145.5,51c-6.5,0-13.9,2.6-21.8,7.6c-12.8,8.2-25.2,21.8-34.8,38.5
	c-9.6,16.6-15.2,34.1-15.9,49.4c-0.7,14.7,3.5,25.4,11.6,30.1c8.1,4.7,19.4,2.9,31.9-5.1c12.8-8.2,25.2-21.8,34.8-38.5
	c9.6-16.6,15.2-34.1,15.9-49.4c0.6-14.7-3.5-25.4-11.6-30.1C152.5,51.8,149.2,51,145.5,51L145.5,51z"/>
<path d="M120,155c-19.8,0-38.5-4-52.5-11.3C53,136.1,45,125.9,45,115s8-21.1,22.5-28.6C81.5,79.1,100.2,75,120,75s38.5,4,52.5,11.3
	C187,93.9,195,104.1,195,115s-8,21.1-22.5,28.6C158.5,150.9,139.8,155,120,155z M120,79c-39.1,0-71,16.1-71,36s31.9,36,71,36
	s71-16.1,71-36S159.1,79,120,79L120,79z"/>
<circle class="st0" cx="120" cy="115" r="15"/>
<path d="M120,132c-9.4,0-17-7.6-17-17s7.6-17,17-17s17,7.6,17,17S129.4,132,120,132z M120,102c-7.2,0-13,5.8-13,13s5.8,13,13,13
	s13-5.8,13-13S127.2,102,120,102z"/>
<text transform="matrix(0.3498 0 0 1 219.0352 170.6289)" class="st1 st2">Community Science center</text>
</svg>
